<svg xmlns="http://www.w3.org/2000/svg" xmlns:xlink="http://www.w3.org/1999/xlink" viewBox="0,0,256,256" width="50px" height="50px" fill-rule="nonzero"><g fill="#ffffff" fill-rule="nonzero" stroke="none" stroke-width="1" stroke-linecap="butt" stroke-linejoin="miter" stroke-miterlimit="10" stroke-dasharray="" stroke-dashoffset="0" font-family="none" font-weight="none" font-size="none" text-anchor="none" style="mix-blend-mode: normal"><g transform="scale(5.12,5.12)"><path d="M3,4c-1.64453,0 -3,1.35547 -3,3v36.90625c-0.0625,0.23047 -0.03906,0.47266 0.0625,0.6875c0.28125,1.36328 1.5,2.40625 2.9375,2.40625h39c1.49219,0 2.71875,-1.125 2.9375,-2.5625c0.00781,-0.0625 0.02734,-0.125 0.03125,-0.1875c0,-0.01953 0,-0.04297 0,-0.0625l0.03125,-0.15625c0,-0.01172 0,-0.01953 0,-0.03125l4.96875,-26.8125l0.03125,-0.09375v-0.09375c0,-1.64453 -1.35547,-3 -3,-3v-3c0,-1.64453 -1.35547,-3 -3,-3h-25.96875c0.00391,0.00391 -0.00781,0 -0.03125,0c-0.03125,-0.02344 -0.12109,-0.09766 -0.28125,-0.28125c-0.24609,-0.28125 -0.53125,-0.75 -0.84375,-1.25c-0.3125,-0.5 -0.64844,-1.03125 -1.0625,-1.5c-0.41406,-0.46875 -0.99219,-0.96875 -1.8125,-0.96875zM3,6h11c-0.0625,0 0.06641,0 0.3125,0.28125c0.24609,0.28125 0.53125,0.75 0.84375,1.25c0.3125,0.5 0.65625,1.03125 1.0625,1.5c0.40625,0.46875 0.96094,0.96875 1.78125,0.96875h26c0.5625,0 1,0.4375 1,1v3h-37c-1.57422,0 -2.82812,1.26563 -2.9375,2.8125h-0.03125l-0.03125,0.1875l-3,16.1875v-26.1875c0,-0.5625 0.4375,-1 1,-1zM8,16h39c0.5625,0 1,0.4375 1,1l-4.90625,26.53125l-0.03125,0.0625c-0.01172,0.03906 -0.02344,0.08203 -0.03125,0.125c-0.01172,0.03906 -0.02344,0.08203 -0.03125,0.125c0,0.01953 0,0.04297 0,0.0625c0,0.01172 0,0.01953 0,0.03125c-0.01562,0.05078 -0.02344,0.10156 -0.03125,0.15625c-0.00391,0.03125 0.00391,0.0625 0,0.09375c-0.00391,0.04297 -0.00391,0.08203 0,0.125c-0.125,0.40625 -0.51172,0.6875 -0.96875,0.6875h-39c-0.5625,0 -1,-0.4375 -1,-1l4.96875,-26.8125l0.03125,-0.09375v-0.09375c0,-0.5625 0.4375,-1 1,-1z"></path></g></g></svg>