<svg width="639.5221923828125px" height="112.39999999999999px" xmlns="http://www.w3.org/2000/svg" viewBox="-69.76109619140624 18.800000000000004 639.5221923828125 112.39999999999999" style="background: rgba(0, 0, 0, 0);" preserveAspectRatio="xMidYMid"><defs><filter id="editing-hole" x="-100%" y="-100%" width="300%" height="300%"><feFlood flood-color="#000" result="black"></feFlood><feMorphology operator="dilate" radius="2" in="SourceGraphic" result="erode"></feMorphology><feGaussianBlur in="erode" stdDeviation="4" result="blur"></feGaussianBlur><feOffset in="blur" dx="2" dy="2" result="offset"></feOffset><feComposite operator="atop" in="offset" in2="black" result="merge"></feComposite><feComposite operator="in" in="merge" in2="SourceGraphic" result="inner-shadow"></feComposite></filter></defs><g filter="url(#editing-hole)"><g transform="translate(31.34350872039795, 95.38500022888184)"><path d="M20.10-40L39.30-40L39.30-40Q50.24-40 50.24-30.21L50.24-30.21L50.24-30.21Q50.24-26.18 49.02-22.53L49.02-22.53L49.02-22.53Q46.78-15.62 41.98-13.31L41.98-13.31L46.21 0L32.83 0L29.89-11.90L27.26-11.90L25.22 0L13.06 0L20.10-40ZM28.99-21.76L31.81-21.76L31.81-21.76Q33.98-21.76 35.10-22.24L35.10-22.24L35.10-22.24Q36.22-22.72 36.64-24.99L36.64-24.99L36.64-24.99Q37.06-27.26 37.06-27.78L37.06-27.78L37.06-27.78Q37.06-29.06 36.06-29.41L36.06-29.41L36.06-29.41Q35.07-29.76 32.83-29.76L32.83-29.76L30.40-29.76L28.99-21.76ZM11.65-3.07L11.14-0.19L-16-3.07L11.65-3.07ZM13.82-15.42L13.31-12.54L-13.82-15.42L13.82-15.42ZM15.94-27.71L15.42-24.83L-11.65-27.71L15.94-27.71ZM17.02-33.86L16.51-30.98L-10.56-33.86L17.02-33.86ZM12.74-9.28L12.22-6.40L-14.91-9.28L12.74-9.28ZM18.11-40L17.60-37.12L-9.47-40L18.11-40ZM14.85-21.57L14.34-18.69L-12.74-21.57L14.85-21.57ZM87.74-19.90L86.66-13.76L77.12-13.76L76.35-9.41L88.19-9.41L86.53 0L63.94 0L69.82-33.86L92.35-33.86L89.34-24.26L78.91-24.26L78.14-19.90L87.74-19.90ZM62.34-3.07L61.82-0.19L34.69-3.07L62.34-3.07ZM64.51-15.42L64-12.54L36.86-15.42L64.51-15.42ZM65.60-21.57L65.09-18.69L37.95-21.57L65.60-21.57ZM66.69-27.71L66.18-24.83L39.04-27.71L66.69-27.71ZM67.71-33.86L67.26-30.98L40.13-33.86L67.71-33.86ZM63.42-9.28L62.91-6.40L35.78-9.28L63.42-9.28ZM137.73 0L126.53 0L126.27-5.18L118.21-5.18L116.22 0L105.15 0L119.36-33.86L135.23-33.86L137.73 0ZM121.60-14.34L126.27-14.34L126.27-24.06L125.38-24.06L121.60-14.34ZM104.32-3.07L103.10-0.26L76.86-3.07L104.32-3.07ZM106.94-9.28L105.73-6.46L79.49-9.28L106.94-9.28ZM109.50-15.42L108.35-12.61L82.11-15.42L109.50-15.42ZM112.13-21.57L110.91-18.75L84.74-21.57L112.13-21.57ZM114.69-27.71L113.54-24.90L87.36-27.71L114.69-27.71ZM117.25-33.86L116.10-31.10L89.98-33.86L117.25-33.86ZM176.90-10.30L175.87-0.70L175.87-0.70Q172.42 0.77 166.27 0.77L166.27 0.77L166.27 0.77Q160.13 0.77 157.22-1.82L157.22-1.82L157.22-1.82Q154.30-4.42 154.30-9.98L154.30-9.98L154.30-9.98Q154.30-12.48 155.07-16.90L155.07-16.90L155.07-16.90Q156.67-26.18 160.61-30.34L160.61-30.34L160.61-30.34Q164.54-34.50 173.18-34.50L173.18-34.50L173.18-34.50Q179.39-34.50 181.70-33.09L181.70-33.09L178.43-24.19L178.43-24.19Q175.23-25.09 172.61-25.09L172.61-25.09L172.61-25.09Q169.98-25.09 168.93-24.64L168.93-24.64L168.93-24.64Q167.87-24.19 167.62-22.91L167.62-22.91L165.12-9.22L165.12-9.22Q166.46-8.90 169.76-8.90L169.76-8.90L169.76-8.90Q173.06-8.90 176.90-10.30L176.90-10.30ZM127.30-15.42L152.83-15.42L152.83-15.42Q152.58-13.44 152.51-12.74L152.51-12.74L127.30-15.42ZM128.45-21.57L154.05-21.57L153.47-18.88L128.45-21.57ZM127.55-9.28L152.45-9.28L152.45-9.28Q152.45-8.26 152.70-6.59L152.70-6.59L127.55-9.28ZM131.01-27.71L156.29-27.71L156.29-27.71Q155.52-26.05 155.20-25.15L155.20-25.15L131.01-27.71ZM133.12-3.07L153.79-3.07L153.79-3.07Q154.56-1.54 155.46-0.70L155.46-0.70L133.12-3.07ZM139.58-33.86L161.86-33.86L161.86-33.86Q160.32-32.96 159.23-31.74L159.23-31.74L139.58-33.86ZM222.91-33.86L221.18-24.26L214.27-24.26L210.05 0L198.78 0L203.01-24.26L195.90-24.26L197.63-33.86L222.91-33.86ZM197.38-3.07L196.86-0.19L169.73-3.07L197.38-3.07ZM199.55-15.42L199.04-12.54L171.90-15.42L199.55-15.42ZM200.64-21.57L200.13-18.69L172.99-21.57L200.64-21.57ZM194.50-27.71L193.98-24.83L166.85-27.71L194.50-27.71ZM195.52-33.86L195.07-30.98L167.94-33.86L195.52-33.86ZM198.46-9.28L197.95-6.40L170.82-9.28L198.46-9.28ZM241.02-40L260.22-40L260.22-40Q271.17-40 271.17-30.21L271.17-30.21L271.17-30.21Q271.17-26.18 269.95-22.53L269.95-22.53L269.95-22.53Q267.71-15.62 262.91-13.31L262.91-13.31L267.14 0L253.76 0L250.82-11.90L248.19-11.90L246.14 0L233.98 0L241.02-40ZM249.92-21.76L252.74-21.76L252.74-21.76Q254.91-21.76 256.03-22.24L256.03-22.24L256.03-22.24Q257.15-22.72 257.57-24.99L257.57-24.99L257.57-24.99Q257.98-27.26 257.98-27.78L257.98-27.78L257.98-27.78Q257.98-29.06 256.99-29.41L256.99-29.41L256.99-29.41Q256-29.76 253.76-29.76L253.76-29.76L251.33-29.76L249.92-21.76ZM232.58-3.07L232.06-0.19L204.93-3.07L232.58-3.07ZM234.75-15.42L234.24-12.54L207.10-15.42L234.75-15.42ZM236.86-27.71L236.35-24.83L209.28-27.71L236.86-27.71ZM237.95-33.86L237.44-30.98L210.37-33.86L237.95-33.86ZM233.66-9.28L233.15-6.40L206.02-9.28L233.66-9.28ZM239.04-40L238.53-37.12L211.46-40L239.04-40ZM235.78-21.57L235.26-18.69L208.19-21.57L235.78-21.57ZM308.67-19.90L307.58-13.76L298.05-13.76L297.28-9.41L309.12-9.41L307.46 0L284.86 0L290.75-33.86L313.28-33.86L310.27-24.26L299.84-24.26L299.07-19.90L308.67-19.90ZM283.26-3.07L282.75-0.19L255.62-3.07L283.26-3.07ZM285.44-15.42L284.93-12.54L257.79-15.42L285.44-15.42ZM286.53-21.57L286.02-18.69L258.88-21.57L286.53-21.57ZM287.62-27.71L287.10-24.83L259.97-27.71L287.62-27.71ZM288.64-33.86L288.19-30.98L261.06-33.86L288.64-33.86ZM284.35-9.28L283.84-6.40L256.70-9.28L284.35-9.28ZM349.31-9.41L347.65 0L326.85 0L332.74-33.86L344-33.86L339.71-9.41L349.31-9.41ZM325.25-3.07L324.74-0.19L297.60-3.07L325.25-3.07ZM327.42-15.42L326.91-12.54L299.78-15.42L327.42-15.42ZM328.51-21.57L328-18.69L300.86-21.57L328.51-21.57ZM329.60-27.71L329.09-24.83L301.95-27.71L329.60-27.71ZM330.62-33.86L330.18-30.98L303.04-33.86L330.62-33.86ZM326.34-9.28L325.82-6.40L298.69-9.28L326.34-9.28ZM394.94 0L383.74 0L383.49-5.18L375.42-5.18L373.44 0L362.37 0L376.58-33.86L392.45-33.86L394.94 0ZM378.82-14.34L383.49-14.34L383.49-24.06L382.59-24.06L378.82-14.34ZM361.54-3.07L360.32-0.26L334.08-3.07L361.54-3.07ZM364.16-9.28L362.94-6.46L336.70-9.28L364.16-9.28ZM366.72-15.42L365.57-12.61L339.33-15.42L366.72-15.42ZM369.34-21.57L368.13-18.75L341.95-21.57L369.34-21.57ZM371.90-27.71L370.75-24.90L344.58-27.71L371.90-27.71ZM374.46-33.86L373.31-31.10L347.20-33.86L374.46-33.86ZM412.16-3.07L411.65-0.19L384.51-3.07L412.16-3.07ZM413.25-9.28L412.74-6.40L385.60-9.28L413.25-9.28ZM409.60-27.71L410.18-24.83L383.04-27.71L409.60-27.71ZM408.32-33.86L408.90-30.98L381.76-33.86L408.32-33.86ZM410.88-21.57L411.46-18.69L384.32-21.57L410.88-21.57ZM412.10-15.42L412.74-12.54L385.60-15.42L412.10-15.42ZM410.24-33.86L421.25-33.86L422.66-21.57L423.04-21.57L428.35-33.86L439.55-33.86L425.98-9.66L424.38 0L413.57 0L415.23-9.66L410.24-33.86Z" fill="#ccc"></path></g></g><style>text {
  font-size: 64px;
  font-family: Arial Black;
  dominant-baseline: central;
  text-anchor: middle;
}</style></svg>